<?xml version="1.0" encoding="UTF-8"?>
<!DOCTYPE svg PUBLIC "-//W3C//DTD SVG 1.1//EN" "http://www.w3.org/Graphics/SVG/1.1/DTD/svg11.dtd">
<!-- Creator: CorelDRAW -->
<svg xmlns="http://www.w3.org/2000/svg" xml:space="preserve" width="6.82666in" height="6.82666in" style="shape-rendering:geometricPrecision; text-rendering:geometricPrecision; image-rendering:optimizeQuality; fill-rule:evenodd; clip-rule:evenodd"
viewBox="0 0 6.82666 6.82666"
 xmlns:xlink="http://www.w3.org/1999/xlink">
 <defs>
  <style type="text/css">
   <![CDATA[
    .fil8 {fill:none}
    .fil7 {fill:#6A6A6A}
    .fil6 {fill:#8E8E8F}
    .fil1 {fill:#A2A2A2}
    .fil2 {fill:#C2C2C2}
    .fil4 {fill:#D4D4D4}
    .fil5 {fill:#F7F7F7}
    .fil3 {fill:#8E8E8F;fill-rule:nonzero}
    .fil0 {fill:#A1A1A1;fill-rule:nonzero}
   ]]>
  </style>
 </defs>
 <g id="Layer_x0020_1">
  <metadata id="CorelCorpID_0Corel-Layer"/>
  <g id="_574507576">
   <g>
    <path id="_574510144" class="fil0" d="M3.60257 3.0646c-0.0435472,0 -0.0788543,0.0353031 -0.0788543,0.0788504 0,0.0435512 0.0353071,0.0788543 0.0788543,0.0788543l2.28391 0c0.0435472,0 0.0788543,-0.0353031 0.0788543,-0.0788543 0,-0.0435472 -0.0353071,-0.0788504 -0.0788543,-0.0788504l-2.28391 0z"/>
    <polygon id="_574510816" class="fil0" points="4.19992,3.14345 4.19992,3.58807 4.04221,3.58807 4.04221,3.14345 "/>
    <polygon id="_574510360" class="fil0" points="4.78782,3.14345 4.78782,3.58807 4.63011,3.58807 4.63011,3.14345 "/>
    <polygon id="_574510120" class="fil0" points="5.37573,3.14345 5.37573,3.58807 5.21802,3.58807 5.21802,3.14345 "/>
    <path id="_574510480" class="fil0" d="M5.97084 3.14345c0,-0.0435472 -0.0353071,-0.0788504 -0.0788543,-0.0788504 -0.0435472,0 -0.0788543,0.0353031 -0.0788543,0.0788504l0 0.444626c0,0.0435472 0.0353071,0.0788543 0.0788543,0.0788543 0.0435472,0 0.0788543,-0.0353071 0.0788543,-0.0788543l0 -0.444626z"/>
   </g>
   <polygon id="_574509448" class="fil1" points="0.853331,2.06222 2.44005,0.863205 2.48952,0.900622 3.92263,1.98478 4.02542,2.06222 "/>
   <polygon id="_574509424" class="fil2" points="1.27752,3.58807 3.60257,3.58807 3.60257,2.03263 1.27752,2.03263 "/>
   <polygon id="_574509976" class="fil3" points="1.90378,2.34549 2.38748,2.34549 2.41376,2.34549 2.46633,2.34549 2.49262,2.34549 2.97631,2.34549 3.05517,2.34549 3.05517,2.42435 3.05517,2.75778 3.05517,2.78407 3.05517,2.83663 3.05517,2.86292 3.05517,3.19636 3.05517,3.27521 2.97631,3.27521 2.49262,3.27521 2.46633,3.27521 2.41376,3.27521 2.38748,3.27521 1.90378,3.27521 1.82492,3.27521 1.82492,3.19636 1.82492,2.86292 1.82492,2.83663 1.82492,2.78407 1.82492,2.75778 1.82492,2.42435 1.82492,2.34549 "/>
   <path id="_574509592" class="fil4" d="M5.73678 3.74581l-1.84546 0 -0.00249213 2.18552 -0.236551 0 0.00249213 -2.3038c0,-0.0653071 0.0529685,-0.118276 0.118276,-0.118276l2.08201 0c0.0653071,0 0.118276,0.0529685 0.118276,0.118276l-0.00244488 2.33593 -0.236555 0 0.00244882 -2.21765z"/>
   <path id="_574510024" class="fil4" d="M0.991272 3.58807l0 2.37539c2.2087,0 1.80819,0 2.89756,0l0 -2.37539c0,-0.0435472 -0.0353031,-0.0788543 -0.0788543,-0.0788543l-0.207402 0 -2.32506 0 -0.20739 0c-0.0435472,0 -0.0788543,0.0353071 -0.0788543,0.0788543z"/>
   <polygon id="_574508800" class="fil4" points="0.99111,2.06222 2.44005,0.966094 3.88898,2.06222 "/>
   <polygon id="_574508632" class="fil5" points="1.87092,2.39149 2.42033,2.39149 2.42033,2.79063 1.87092,2.79063 "/>
   <polygon id="_574509088" class="fil5" points="2.45976,2.39149 3.00917,2.39149 3.00917,2.79063 2.45976,2.79063 "/>
   <polygon id="_574509016" class="fil5" points="3.00917,2.83007 3.00917,3.22921 2.45976,3.22921 2.45976,2.83007 "/>
   <polygon id="_574507840" class="fil5" points="2.42033,3.22921 1.87092,3.22921 1.87092,2.83007 2.42033,2.83007 "/>
   <path id="_574508464" class="fil1" d="M2.44005 1.37799c0.120244,0 0.217728,0.0974764 0.217728,0.217732 0,0.120248 -0.0974843,0.217724 -0.217728,0.217724 -0.120252,0 -0.217724,-0.0974764 -0.217724,-0.217724 0,-0.120256 0.0974724,-0.217732 0.217724,-0.217732z"/>
   <g>
    <polygon id="_574507888" class="fil3" points="1.85058,4.37165 2.18402,4.37165 2.26287,4.37165 2.26287,4.4505 2.26287,4.86493 2.26287,4.89122 2.26287,4.94379 2.26287,4.97007 2.26287,5.38451 2.26287,5.46337 2.18402,5.46337 1.85058,5.46337 1.8243,5.46337 1.77173,5.46337 1.74544,5.46337 1.41201,5.46337 1.33315,5.46337 1.33315,5.38451 1.33315,4.97007 1.33315,4.94379 1.33315,4.89122 1.33315,4.86493 1.33315,4.4505 1.33315,4.37165 1.41201,4.37165 1.74544,4.37165 1.77173,4.37165 1.8243,4.37165 "/>
    <path id="_574508224" class="fil5" d="M1.37915 4.93722l0.399142 0 0 0.480142 -0.399142 0 0 -0.480142zm0.399142 -0.519575l0 0.480142 -0.399142 0 0 -0.480142 0.399142 0zm0.039437 0.519575l0.399142 0 0 0.480142 -0.399142 0 0 -0.480142zm0 -0.519575l0.399142 0 0 0.480142 -0.399142 0 0 -0.480142z"/>
   </g>
   <polygon id="_574508152" class="fil6" points="2.50667,4.37165 3.5141,4.37165 3.5141,5.96346 2.50667,5.96346 "/>
   <polygon id="_574508392" class="fil5" points="2.55267,4.41764 2.55267,5.96346 3.4681,5.96346 3.4681,4.41764 "/>
   <path id="_574507120" class="fil7" d="M2.6932 4.99983l0 0.179744c0,0.0217756 0.0176535,0.0394291 0.0394252,0.0394291 0.0217756,0 0.0394291,-0.0176535 0.0394291,-0.0394291l0 -0.179744c0,-0.0217756 -0.0176535,-0.0394252 -0.0394291,-0.0394252 -0.0217717,0 -0.0394252,0.0176496 -0.0394252,0.0394252z"/>
  </g>
 </g>
 <rect class="fil8" width="6.82666" height="6.82666"/>
</svg>
